<?xml version="1.0" encoding="utf-8"?>
<!-- Generator: Adobe Illustrator 16.0.3, SVG Export Plug-In . SVG Version: 6.00 Build 0)  -->
<!DOCTYPE svg PUBLIC "-//W3C//DTD SVG 1.1//EN" "http://www.w3.org/Graphics/SVG/1.1/DTD/svg11.dtd">
<svg version="1.1" id="Capa_1" xmlns="http://www.w3.org/2000/svg" xmlns:xlink="http://www.w3.org/1999/xlink" x="0px" y="0px"
	 width="629.968px" height="324.101px" viewBox="0 0 629.968 324.101" enable-background="new 0 0 629.968 324.101"
	 xml:space="preserve">
<g>
	<path fill="#FFFFFF" d="M239.72,276.341c0,1.123-0.055,2.248,0.018,3.366c0.056,0.851-0.22,1.159-1.081,1.229
		c-6.375,0.514-12.52-0.39-18.152-3.472c-12.759-6.983-19.197-17.865-17.986-32.361c1.188-14.204,9.188-23.748,22.545-28.68
		c4.41-1.629,9.035-1.971,13.718-1.536c0.678,0.063,0.972,0.237,0.956,0.995c-0.05,2.392-0.048,4.788-0.002,7.181
		c0.016,0.815-0.286,0.895-0.994,0.807c-14.709-1.847-27.3,9.06-27.59,23.878c-0.241,12.342,9.697,23.305,22.022,24.335
		c1.916,0.16,3.813,0.113,5.703-0.154c0.655-0.093,0.873,0.039,0.853,0.709C239.692,273.872,239.72,275.107,239.72,276.341"/>
	<path fill="#FFFFFF" d="M237.332,265.935c-9.705,0.009-17.654-7.915-17.675-17.617c-0.02-9.788,7.873-17.71,17.666-17.731
		c9.768-0.022,17.673,7.91,17.666,17.721C254.98,258.021,247.063,265.926,237.332,265.935 M237.368,257.04
		c4.835-0.015,8.755-3.953,8.752-8.795c-0.002-4.843-3.927-8.767-8.773-8.772c-4.897-0.005-8.835,3.954-8.804,8.85
		C228.574,253.153,232.523,257.054,237.368,257.04"/>
	<path fill="#FFFFFF" d="M391.325,248.131c0,1.383-0.031,2.768,0.007,4.151c0.051,1.817,0.893,2.646,2.725,2.711
		c1.726,0.063,3.443-0.084,5.138-0.387c0.844-0.15,1.133,0.08,1.194,0.917c0.067,0.929,0.276,1.847,0.435,2.769
		c0.061,0.357,0.107,0.642-0.396,0.732c-3.031,0.538-6.071,0.981-9.125,0.247c-3.287-0.79-5.021-2.974-5.063-6.361
		c-0.04-3.216-0.04-6.432-0.001-9.648c0.044-3.545,1.979-5.815,5.491-6.469c2.88-0.537,5.735-0.177,8.584,0.325
		c0.495,0.087,0.594,0.306,0.511,0.765c-0.193,1.067-0.369,2.138-0.506,3.213c-0.084,0.653-0.478,0.514-0.895,0.453
		c-1.667-0.242-3.342-0.429-5.027-0.409c-2.226,0.026-3.048,0.854-3.073,3.063c-0.015,1.309-0.002,2.618-0.002,3.927H391.325z"/>
	<path fill="#FFFFFF" d="M417.391,251.153c0,0.859,0.04,1.72-0.007,2.576c-0.16,2.903-1.808,4.901-4.631,5.592
		c-1.843,0.452-3.705,0.454-5.547-0.003c-2.776-0.69-4.396-2.534-4.569-5.379c-0.115-1.896-0.113-3.811,0-5.707
		c0.171-2.83,1.827-4.713,4.58-5.371c1.843-0.44,3.707-0.437,5.55,0.003c2.755,0.656,4.428,2.649,4.608,5.49
		c0.059,0.93,0.01,1.865,0.01,2.799H417.391z M407.5,251.063c-0.001,0-0.003,0-0.005,0c0,0.819-0.054,1.643,0.013,2.457
		c0.108,1.32,0.897,1.941,2.373,1.969c1.56,0.03,2.495-0.568,2.574-1.87c0.101-1.671,0.094-3.355,0.004-5.026
		c-0.07-1.304-1.029-1.958-2.533-1.937c-1.454,0.021-2.299,0.668-2.412,1.949C407.442,249.419,407.5,250.244,407.5,251.063"/>
	<path fill="#FFFFFF" d="M335.824,247.68c0-3.512-0.001-7.024,0.002-10.536c0.001-0.799,1.036-1.5,1.722-1.166
		c0.356,0.174,0.215,0.525,0.217,0.8c0.013,1.98,0.029,3.96-0.005,5.94c-0.015,0.797,0.183,0.984,0.958,0.656
		c1.644-0.695,3.383-0.921,5.16-0.782c2.335,0.183,3.844,1.607,3.93,3.953c0.101,2.76,0.1,5.531-0.004,8.291
		c-0.096,2.553-1.566,4.104-4.113,4.588c-2.43,0.462-4.837,0.103-7.244-0.243c-0.725-0.104-0.622-0.596-0.622-1.076
		C335.825,254.629,335.824,251.155,335.824,247.68 M337.755,251.606c0,1.681,0.021,3.361-0.011,5.041
		c-0.011,0.585,0.142,0.911,0.771,0.963c1.413,0.116,2.82,0.315,4.243,0.118c2.036-0.284,2.993-1.129,3.093-3.172
		c0.123-2.532,0.104-5.077,0.015-7.61c-0.058-1.644-0.935-2.38-2.598-2.475c-1.639-0.093-3.177,0.286-4.664,0.969
		c-0.625,0.287-0.892,0.635-0.867,1.35C337.794,248.394,337.755,250,337.755,251.606"/>
	<path fill="#FFFFFF" d="M322.45,247.625c0,3.587,0.003,7.174-0.002,10.761c0,0.423,0.149,0.987-0.6,0.896
		c-0.508-0.062-1.268,0.349-1.279-0.711c-0.009-0.9-0.521-0.452-0.879-0.245c-1.662,0.96-3.443,1.436-5.364,1.283
		c-2.438-0.194-3.804-1.479-3.89-3.927c-0.103-2.91-0.112-5.831,0.003-8.74c0.11-2.8,1.714-4.257,4.524-4.374
		c1.461-0.061,2.928-0.012,4.35,0.323c1.03,0.242,1.194-0.136,1.161-1.045c-0.06-1.604,0.04-3.216-0.035-4.818
		c-0.062-1.31,0.948-0.938,1.548-1.02c0.788-0.107,0.441,0.627,0.444,0.969C322.461,240.526,322.45,244.076,322.45,247.625
		 M320.458,250.481c0-1.57-0.027-3.139,0.013-4.707c0.017-0.636-0.165-0.95-0.825-1.05c-1.48-0.224-2.961-0.423-4.46-0.371
		c-1.751,0.062-2.706,0.854-2.765,2.586c-0.1,2.911-0.079,5.828-0.012,8.74c0.03,1.335,0.698,1.95,2.03,2.106
		c2.124,0.249,3.959-0.495,5.646-1.722c0.408-0.298,0.372-0.692,0.372-1.1V250.481z"/>
	<path fill="#FFFFFF" d="M301.661,251.688c-1.271,0-2.547,0.078-3.81-0.023c-1.087-0.088-1.402,0.345-1.252,1.325
		c0.012,0.074,0.001,0.149,0.001,0.224c0,3.749,1.081,4.776,4.865,4.623c1.274-0.051,2.529-0.236,3.764-0.547
		c0.467-0.118,0.886-0.247,0.968,0.458c0.058,0.498,0.341,1-0.47,1.2c-2.267,0.558-4.543,0.932-6.873,0.519
		c-2.484-0.44-3.927-1.934-4.155-4.45c-0.231-2.568-0.236-5.154-0.005-7.722c0.229-2.538,1.697-4.074,4.197-4.581
		c1.183-0.24,2.386-0.236,3.568-0.025c2.432,0.437,3.846,1.875,4.136,4.35c0.156,1.328,0.06,2.684,0.114,4.028
		c0.025,0.626-0.349,0.626-0.791,0.624C304.5,251.683,303.08,251.688,301.661,251.688 M300.765,249.942h1.904
		c2.226,0,2.226,0,2.062-2.246c-0.098-1.341-0.517-2.492-1.86-3.076c-3.416-1.482-6.263,0.345-6.27,4.02
		c0,0.075,0.01,0.151-0.001,0.224c-0.123,0.806,0.156,1.155,1.03,1.095C298.67,249.887,299.72,249.942,300.765,249.942"/>
	<path fill="#FFFFFF" d="M361.953,258.088c-1.804,1.019-3.603,1.577-5.557,1.546c-2.513-0.039-3.89-1.295-4.12-3.787
		c-0.047-0.518-0.045-1.046-0.006-1.565c0.185-2.43,1.302-3.585,3.754-3.738c1.602-0.101,3.213-0.095,4.819-0.044
		c0.849,0.027,1.137-0.245,1.061-1.082c-0.068-0.741,0.014-1.496-0.031-2.24c-0.108-1.786-0.837-2.567-2.609-2.765
		c-1.762-0.198-3.514-0.018-5.241,0.316c-0.681,0.133-0.916-0.025-1.04-0.704c-0.123-0.67,0.02-0.924,0.708-1.046
		c2.297-0.402,4.593-0.683,6.896-0.124c1.994,0.484,3.159,1.757,3.21,3.797c0.098,3.997,0.053,7.997,0.074,11.996
		c0.002,0.382-0.063,0.716-0.532,0.627c-0.418-0.079-1.011,0.35-1.226-0.373C362.049,258.691,362.026,258.469,361.953,258.088
		 M361.9,254.249c0-0.447-0.022-0.895,0.007-1.341c0.031-0.485-0.163-0.656-0.645-0.647c-1.639,0.029-3.28-0.022-4.917,0.056
		c-1.366,0.067-1.895,0.656-2.095,2.009c-0.082,0.562-0.043,1.111,0.012,1.669c0.106,1.103,0.724,1.655,1.791,1.795
		c1.294,0.17,2.526-0.078,3.726-0.522C361.877,256.49,361.901,256.441,361.9,254.249"/>
	<path fill="#FFFFFF" d="M369.204,251.044c0-2.431,0.001-4.862-0.001-7.292c0-0.458-0.064-0.946,0.649-0.877
		c0.508,0.048,1.188-0.235,1.166,0.715c-0.018,0.75,0.395,0.592,0.879,0.401c1.706-0.675,3.438-1.286,5.289-1.408
		c2.784-0.184,4.018,0.95,4.041,3.791c0.032,4.002-0.012,8.004,0.027,12.005c0.007,0.758-0.228,0.96-0.944,0.927
		c-0.643-0.028-1.109,0.036-1.097-0.902c0.056-3.89,0.025-7.779,0.022-11.669c-0.001-2.035-0.575-2.538-2.588-2.257
		c-1.605,0.224-3.109,0.786-4.606,1.382c-0.656,0.262-0.861,0.664-0.856,1.363c0.034,3.702-0.009,7.406,0.037,11.108
		c0.01,0.807-0.237,0.995-1.003,0.983c-0.738-0.01-1.055-0.142-1.035-0.978C369.24,255.907,369.204,253.476,369.204,251.044"/>
	<path fill="#FFFFFF" d="M266.788,247.992c-0.001-1.87-0.058-3.742,0.011-5.61c0.119-3.231,1.719-5.051,4.879-5.621
		c2.426-0.438,4.841-0.175,7.259,0.148c0.763,0.102,0.624,0.55,0.57,1.042c-0.061,0.554-0.182,0.857-0.893,0.736
		c-1.734-0.293-3.492-0.423-5.254-0.313c-3.307,0.202-4.567,1.526-4.578,4.81c-0.012,3.291-0.015,6.583,0,9.875
		c0.015,3.165,1.27,4.486,4.443,4.691c1.798,0.116,3.594,0.013,5.369-0.28c0.671-0.11,0.851,0.124,0.911,0.714
		c0.056,0.546,0.182,0.991-0.639,1.093c-2.345,0.292-4.683,0.548-7.04,0.169c-3.186-0.513-4.898-2.381-5.024-5.621
		C266.727,251.884,266.789,249.937,266.788,247.992"/>
	<path fill="#FFFFFF" d="M284.29,251.017c0-2.43,0.026-4.862-0.016-7.292c-0.013-0.726,0.271-0.863,0.919-0.869
		c0.663-0.007,0.906,0.166,0.923,0.872c0.035,1.576,0.07,1.56,1.417,0.747c0.863-0.521,1.743-1.02,2.644-1.472
		c0.301-0.151,0.831-0.673,0.995-0.114c0.161,0.553,0.702,1.341-0.262,1.86c-1.184,0.637-2.311,1.38-3.497,2.013
		c-0.85,0.452-1.182,1.026-1.157,2.038c0.082,3.176,0,6.356,0.05,9.535c0.012,0.828-0.283,0.974-1.026,0.98
		c-0.776,0.006-1.024-0.21-1.007-1.006C284.322,255.879,284.29,253.448,284.29,251.017"/>
	<path fill="#FFFFFF" d="M330.137,251.074c0,2.465-0.045,4.931,0.022,7.395c0.023,0.909-0.469,0.813-1.047,0.828
		c-0.62,0.016-1.024-0.002-1.017-0.861c0.044-4.892,0.046-9.785,0-14.677c-0.01-0.938,0.47-0.867,1.106-0.899
		c0.725-0.037,0.966,0.185,0.951,0.933C330.11,246.22,330.137,248.647,330.137,251.074"/>
	<path fill="#FFFFFF" d="M328.118,237.993c0-0.26,0.032-0.524-0.007-0.779c-0.127-0.831,0.194-1.064,1.036-1.081
		c0.909-0.016,1.075,0.345,1,1.115c-0.052,0.516-0.059,1.045,0.002,1.559c0.098,0.825-0.179,1.103-1.036,1.076
		c-0.755-0.024-1.116-0.194-1.002-0.999C328.152,238.593,328.118,238.291,328.118,237.993"/>
	<path fill="#FFFFFF" d="M179.903,129.346h-5.798V102.17h9.24c7.32,0,9.711,3.333,9.711,8.515c0,3.37-0.942,5.943-3.804,7.32
		l4.819,11.342h-6.776l-3.659-10.182h-3.732V129.346z M179.903,113.91h3.949c2.573,0,2.899-1.739,2.899-3.225
		c0-1.521-0.326-3.225-2.899-3.225h-3.949V113.91z"/>
	<polygon fill="#FFFFFF" points="241.291,117.896 230.818,117.896 230.818,124.055 242.341,124.055 242.341,129.346 
		225.021,129.346 225.021,102.169 242.341,102.169 242.341,107.46 230.818,107.46 230.818,112.714 241.291,112.714 	"/>
	<path fill="#FFFFFF" d="M274.124,115.757c0-9.458,3.407-14.095,11.668-14.095c3.696,0,6.377,0.544,8.009,1.269v5.653
		c-2.248-0.943-4.674-1.486-6.922-1.486c-5.181,0-6.884,2.319-6.884,8.66c0,6.777,1.849,8.66,6.884,8.66
		c0.544,0,1.269-0.036,1.668-0.108v-5.508h-3.842v-5.182h9.639v14.385c-1.63,1.015-4.819,1.848-8.732,1.848
		C277.531,129.853,274.124,125.215,274.124,115.757"/>
	<path fill="#FFFFFF" d="M325.221,129.346l7.537-27.321h6.667l7.537,27.321h-6.16l-1.268-5.581h-6.885l-1.27,5.581H325.221z
		 M333.773,119.164h4.638l-2.318-10.292L333.773,119.164z"/>
	<polygon fill="#FFFFFF" points="384.145,124.056 395.125,124.056 395.125,129.346 378.348,129.346 378.348,102.17 384.145,102.17 	
		"/>
	<path fill="#FFFFFF" d="M424.19,115.757c0-8.298,2.283-14.095,10.834-14.095c8.552,0,10.835,5.797,10.835,14.095
		c0,8.298-2.283,14.096-10.835,14.096C426.473,129.853,424.19,124.056,424.19,115.757 M430.059,115.757
		c0,6.341,1.378,8.842,4.965,8.842c3.588,0,4.965-2.501,4.965-8.842s-1.377-8.841-4.965-8.841
		C431.437,106.917,430.059,109.417,430.059,115.757"/>
	<path fill="#FFFFFF" d="M68.722,155.145c3.152,0,4.566,0.58,5.653,1.015v5.472c-1.631-0.652-2.899-1.051-5.073-1.051
		c-4.421,0-6.451,1.776-6.451,8.661s2.03,8.661,6.451,8.661c2.173,0,3.442-0.399,5.073-1.052v5.472
		c-1.087,0.435-2.5,1.015-5.653,1.015c-7.935,0-11.705-3.877-11.74-14.096C57.017,159.022,60.787,155.145,68.722,155.145"/>
	<path fill="#FFFFFF" d="M106.338,169.24c0-8.298,2.284-14.096,10.835-14.096c8.552,0,10.835,5.797,10.835,14.096
		c0,8.298-2.283,14.096-10.835,14.096C108.623,183.336,106.338,177.538,106.338,169.24 M112.209,169.24
		c0,6.341,1.377,8.841,4.964,8.841c3.588,0,4.964-2.5,4.964-8.841c0-6.341-1.376-8.841-4.964-8.841
		C113.586,160.399,112.209,162.899,112.209,169.24"/>
	<polygon fill="#FFFFFF" points="174.502,182.829 165.734,166.595 165.879,182.829 160.153,182.829 160.153,155.652 
		165.879,155.652 174.647,171.885 174.502,155.652 180.229,155.652 180.229,182.829 	"/>
	<path fill="#FFFFFF" d="M267.564,174.168c0,6.739-4.24,9.167-10.653,9.167c-2.936,0-6.523-0.508-8.479-1.667v-5.942
		c1.268,0.725,4.312,2.102,7.899,2.102c4.095,0,5.291-1.268,5.291-3.116c0-2.065-0.906-2.754-3.66-3.117
		c-6.885-0.906-9.53-2.935-9.53-8.261c0-4.929,3.008-8.19,10.182-8.19c3.696,0,6.414,0.653,7.683,1.34v5.617
		c-1.486-0.725-4.493-1.45-7.248-1.45c-3.008,0-4.675,0.943-4.675,2.682c0,1.956,1.051,2.572,3.878,2.971
		C264.266,167.139,267.564,168.371,267.564,174.168"/>
	<polygon fill="#FFFFFF" points="315.617,171.378 305.145,171.378 305.145,177.538 316.667,177.538 316.667,182.829 
		299.347,182.829 299.347,155.652 316.667,155.652 316.667,160.943 305.145,160.943 305.145,166.197 315.617,166.197 	"/>
	<polygon fill="#FFFFFF" points="362.981,182.829 354.212,166.595 354.357,182.829 348.631,182.829 348.631,155.652 
		354.357,155.652 363.125,171.885 362.981,155.652 368.707,155.652 368.707,182.829 	"/>
	<polygon fill="#FFFFFF" points="412.266,160.942 412.266,182.828 406.468,182.828 406.468,160.942 399.911,160.942 
		399.911,155.652 418.825,155.652 418.825,160.942 	"/>
	<rect x="450.426" y="155.651" fill="#FFFFFF" width="5.798" height="27.177"/>
	<path fill="#FFFFFF" d="M488.949,182.829v-27.177h8.805c9.204,0,11.595,5.87,11.595,13.588s-2.391,13.589-11.595,13.589H488.949z
		 M494.747,177.538h3.115c4.239,0,5.473-3.043,5.473-8.298c0-5.218-1.233-8.298-5.473-8.298h-3.115V177.538z"/>
	<path fill="#FFFFFF" d="M541.132,169.24c0-8.298,2.283-14.096,10.834-14.096c8.552,0,10.835,5.797,10.835,14.096
		c0,8.298-2.283,14.096-10.835,14.096C543.416,183.336,541.132,177.538,541.132,169.24 M547.001,169.24
		c0,6.341,1.378,8.841,4.965,8.841c3.588,0,4.965-2.5,4.965-8.841c0-6.341-1.377-8.841-4.965-8.841
		C548.379,160.399,547.001,162.899,547.001,169.24"/>
</g>
</svg>
